<svg width="1920" height="321" viewBox="0 0 1920 321" fill="none" xmlns="http://www.w3.org/2000/svg">
<path d="M1920 137.179V0H-727.006L-740 320.411C-731.272 305.913 -724.542 290.303 -719.993 274.003C-708.514 284.377 -693.906 290.402 -678.146 292.274C-633.65 297.56 -578.143 267.848 -569.48 222.995C-565.52 202.517 -575.661 207.774 -550.012 210.825C-502.646 216.45 -459.626 199.73 -422.073 175.353C-400.107 161.117 -380.004 144.252 -362.001 127.734C-341.457 149.272 -311.738 161.474 -279.962 165.25C-226.11 171.647 -176.881 149.316 -127.859 132.321C-120.753 129.855 -113.634 127.428 -106.501 125.04C-54.9125 107.742 10.2389 144.37 62.8762 130.859C66.3945 129.951 69.8988 129.06 73.4171 128.177C77.17 127.244 80.923 126.311 84.6758 125.378C88.674 124.394 92.6797 123.417 96.6932 122.446C100.97 121.408 105.261 120.391 109.538 119.385C114.105 118.303 118.677 117.239 123.253 116.193C125.613 115.653 127.985 115.112 130.349 114.581C135.399 113.434 140.449 112.309 145.499 111.206C145.503 111.203 145.508 111.201 145.513 111.201C145.518 111.201 145.523 111.203 145.527 111.206C148.3 110.589 151.088 109.994 153.86 109.389C159.448 108.177 165.036 106.991 170.624 105.829L179.289 104.044L188.879 102.097C195.253 100.82 201.637 99.5655 208.03 98.3327C213.149 97.3372 218.268 96.3673 223.387 95.4231C228.505 94.4789 233.629 93.5413 238.757 92.6104C241.323 92.144 243.889 91.6862 246.454 91.2371C254.153 89.8737 261.861 88.5467 269.578 87.2559C272.047 86.8341 274.517 86.423 276.987 86.0225C279.664 85.5787 282.355 85.1459 285.031 84.7131L290.482 83.8365C292.4 83.5367 294.317 83.2198 296.249 82.928C304.5 81.6299 312.755 80.3715 321.016 79.1527C326.286 78.3738 331.557 77.6128 336.827 76.8698C339.532 76.4807 342.246 76.1022 344.968 75.7344C347.341 75.3985 349.728 75.0747 352.115 74.7608C353.04 74.6309 353.964 74.5009 354.888 74.382C357.486 74.0252 360.085 73.6823 362.684 73.3435C373.087 71.9695 383.5 70.6568 393.921 69.4053C576.235 47.4777 925.424 65.3382 1017.87 57.7108C1074.2 60.9453 1131.2 60.2427 1188.04 64.8935C1203.77 66.1809 1246.04 79.2707 1260.6 79.2707C1260.6 79.2707 1268.15 64.8935 1318.29 64.8935C1352.43 64.8935 1390.58 70.6488 1423.28 73.2775C1415.65 78.0703 1406.47 76.8688 1398.84 79.2747C1441.87 98.205 1488.33 108.084 1535.34 108.299C1549.76 108.299 1550.64 108.559 1550.64 104.784C1550.64 91.5749 1522.53 86.4473 1586.22 86.4473C1609.13 86.4473 1723.59 96.1078 1723.59 115.342L1920 137.179Z" fill="#08061B"/>
</svg>
