<svg width="1920" height="149" viewBox="0 0 1920 149" fill="none" xmlns="http://www.w3.org/2000/svg">
<g clip-path="url(#clip0_3_182)">
<g clip-path="url(#clip1_3_182)">
<g clip-path="url(#clip2_3_182)">
<mask id="mask0_3_182" style="mask-type:luminance" maskUnits="userSpaceOnUse" x="0" y="0" width="1920" height="149">
<path d="M1920 0H0V149H1920V0Z" fill="white"/>
</mask>
<g mask="url(#mask0_3_182)">
<mask id="mask1_3_182" style="mask-type:luminance" maskUnits="userSpaceOnUse" x="0" y="-158" width="2244" height="316">
<path d="M2243.52 -158H0V157.635H2243.52V-158Z" fill="white"/>
</mask>
<g mask="url(#mask1_3_182)">
<path d="M0 41.3645V157.635H2243.52L2254.53 -113.936C2247.14 -101.647 2241.43 -88.4165 2237.58 -74.6015C2227.85 -83.3945 2215.46 -88.5015 2202.11 -90.0875C2164.39 -94.5715 2117.35 -69.3875 2110.01 -31.3705C2106.65 -14.0145 2115.25 -18.4705 2093.51 -21.0555C2053.36 -25.8235 2016.9 -11.6485 1985.07 9.00845C1966.45 21.0744 1949.41 35.3684 1934.15 49.3694C1916.74 31.1144 1891.55 20.7695 1864.62 17.5695C1818.97 12.1505 1777.25 31.0754 1735.7 45.4794C1729.68 47.5701 1723.64 49.6271 1717.6 51.6505C1673.88 66.3114 1618.66 35.2665 1574.04 46.7185C1571.06 47.4885 1568.09 48.2404 1565.11 48.9924C1561.93 49.7811 1558.75 50.5728 1555.56 51.3674C1552.17 52.2014 1548.78 53.0298 1545.38 53.8524C1541.75 54.7325 1538.12 55.5945 1534.49 56.4474C1530.62 57.3641 1526.75 58.2641 1522.87 59.1474C1520.87 59.6054 1518.86 60.0645 1516.86 60.5135C1512.58 61.4855 1508.3 62.4391 1504.02 63.3745C1504.01 63.377 1504.01 63.3783 1504.01 63.3783C1504 63.3783 1504 63.377 1503.99 63.3745C1501.64 63.8974 1499.28 64.4015 1496.93 64.9145C1492.2 65.9411 1487.46 66.9468 1482.72 67.9315L1475.38 69.4445L1467.25 71.0945C1461.85 72.1765 1456.44 73.2401 1451.02 74.2854C1446.68 75.1288 1442.34 75.9508 1438 76.7514C1433.66 77.5521 1429.32 78.3468 1424.97 79.1355C1422.8 79.5294 1420.62 79.9174 1418.45 80.2995C1411.92 81.4548 1405.39 82.5795 1398.85 83.6734C1396.76 84.0308 1394.66 84.3791 1392.57 84.7185C1390.3 85.0945 1388.02 85.4615 1385.75 85.8275L1381.13 86.5704C1379.51 86.8275 1377.88 87.0935 1376.24 87.3405C1369.25 88.4405 1362.25 89.5071 1355.25 90.5405C1350.79 91.2005 1346.32 91.8454 1341.85 92.4754C1339.56 92.8088 1337.26 93.1298 1334.95 93.4384C1332.94 93.7224 1330.92 93.9975 1328.9 94.2635C1328.11 94.3735 1327.33 94.4835 1326.55 94.5845C1324.35 94.8845 1322.14 95.1844 1319.94 95.4644C1311.12 96.6291 1302.3 97.7415 1293.46 98.8015C1138.93 117.386 842.976 102.248 764.625 108.712C716.877 105.971 668.568 106.567 620.388 102.624C607.057 101.533 571.231 90.4395 558.893 90.4395C558.893 90.4395 552.493 102.624 509.993 102.624C481.061 102.624 448.729 97.7464 421.013 95.5184C427.48 91.4565 435.257 92.4744 441.724 90.4384C405.255 74.3937 365.875 66.0203 326.033 65.8385C313.812 65.8385 313.064 65.6185 313.064 68.8185C313.064 80.0184 336.885 84.3595 282.905 84.3595C263.493 84.3595 166.477 76.1714 166.477 59.8694L0 41.3645Z" fill="#08061B"/>
</g>
</g>
</g>
</g>
</g>
<defs>
<clipPath id="clip0_3_182">
<rect width="1920" height="149" fill="white"/>
</clipPath>
<clipPath id="clip1_3_182">
<rect width="1920" height="149" fill="white"/>
</clipPath>
<clipPath id="clip2_3_182">
<rect width="1920" height="149" fill="white"/>
</clipPath>
</defs>
</svg>
