<svg width="178" height="28" viewBox="0 0 178 28" fill="none" xmlns="http://www.w3.org/2000/svg">
<path d="M10.8615 19.3937V19.9074C10.8615 19.9074 11.9124 19.744 11.6964 20.4445C11.4804 21.1451 9.61805 25.6228 9.61805 25.6228L8.11477 22.8469L9.548 20.1877C9.548 20.1877 9.78735 19.9541 10.1464 19.9541V19.3937H4.20042V19.8841C4.20042 19.8841 4.65286 19.9074 4.89222 20.4445C5.13158 20.9816 6.77788 23.9677 6.77788 23.9677L5.77667 25.7658L3.02991 20.4942C3.02991 20.4942 2.93358 19.9337 3.50862 19.9337V19.3966H0V19.9104H0.452443C0.452443 19.9104 0.858183 19.7936 1.3836 20.9145C1.90902 22.0354 4.74919 27.6573 4.74919 27.6573H5.63364L7.18653 24.6946L8.5964 27.6573H9.48086L12.4903 20.5876C12.4903 20.5876 12.7297 19.9804 13.5645 19.9804V19.3966H10.8674L10.8615 19.3937ZM6.80123 20.3862C6.59982 19.9629 6.99096 19.9629 6.99096 19.9629H7.92796C8.60808 19.9629 8.31326 20.4387 8.31326 20.4387L7.54557 21.7581C7.54557 21.7581 7.00556 20.8094 6.80415 20.3862" fill="#43C6EF"/>
<path d="M12.3471 21.6091H15.2427V21.9944C15.2427 21.9944 14.2619 21.9156 14.2619 22.4615V26.7057C14.2619 26.7057 14.2211 27.056 15.161 27.056V27.4383H12.061V27.0384C12.061 27.0384 12.9805 27.1348 12.9805 26.513V22.5023C12.9805 22.5023 13.0885 21.8923 12.2245 21.8923V21.6121H12.3442L12.3471 21.6091Z" fill="#43C6EF"/>
<path d="M15.71 21.6093V21.9946H16.2033C16.2033 21.9946 16.4718 21.9741 16.4718 22.4032V26.3555C16.4718 26.3555 16.5535 27.0765 15.71 27.0765V27.4385H17.9751V27.0386C17.9751 27.0386 17.0498 27.2341 17.0498 26.338V22.7739L22.0325 27.4414H22.5054V22.482C22.5054 22.482 22.3419 21.9946 23.3285 21.9946V21.6093H20.8795V21.9537C20.8795 21.9537 21.8486 21.9157 21.8486 22.4587V25.5557L17.7328 21.6063H15.7158L15.71 21.6093Z" fill="#43C6EF"/>
<path d="M28.2965 24.426C28.2965 24.426 29.0992 24.172 29.0992 23.2C29.0992 22.228 28.5008 21.6091 27.2223 21.6091H23.5327V21.9536C23.5327 21.9536 23.8013 21.9536 23.8013 22.1667V26.9188C23.8013 26.9188 23.74 27.1727 23.5327 27.1727V27.4383H28.0279C28.0279 27.4383 29.286 27.3303 29.286 25.7512C29.286 25.7512 29.3882 24.426 28.2965 24.426ZM24.4405 22.2455H27.0997C27.5726 22.2455 28.46 22.3039 28.46 23.1912C28.46 24.0786 27.5317 24.137 27.5317 24.137H24.4376V22.2484L24.4405 22.2455ZM27.4967 26.802H24.4026V24.7616H27.0618C27.5346 24.7616 28.422 24.8259 28.422 25.7804C28.422 26.7349 27.4938 26.7991 27.4938 26.7991" fill="#43C6EF"/>
<path d="M32.9731 21.4955C30.9765 21.4955 29.3594 22.8558 29.3594 24.5371C29.3594 26.2184 30.9765 27.5787 32.9731 27.5787C34.9697 27.5787 36.5868 26.2184 36.5868 24.5371C36.5868 22.8558 34.9697 21.4955 32.9731 21.4955ZM32.9731 26.9744C31.3735 26.9744 30.0745 25.8827 30.0745 24.5371C30.0745 23.1914 31.3705 22.0997 32.9731 22.0997C34.5756 22.0997 35.8716 23.1914 35.8716 24.5371C35.8716 25.8827 34.5756 26.9744 32.9731 26.9744Z" fill="#43C6EF"/>
<path d="M41.6422 26.9685C41.6422 26.9685 40.5768 25.6258 39.5814 24.3706C40.5097 23.2205 41.4175 22.1055 41.4175 22.1055C41.4175 22.1055 41.4934 21.9449 41.7911 21.9449V21.6063H40.2499V21.8895C40.2499 21.8895 40.7052 21.9216 40.4688 22.2427C40.3812 22.3624 39.8354 23.0541 39.1874 23.8715C38.5394 23.0541 37.9964 22.3624 37.9059 22.2427C37.6695 21.9216 38.1249 21.8895 38.1249 21.8895V21.6063H36.5836V21.9449C36.8843 21.9449 36.9573 22.1055 36.9573 22.1055C36.9573 22.1055 37.8651 23.2205 38.7933 24.3706C37.7979 25.6258 36.7325 26.9685 36.7325 26.9685C36.7325 26.9685 36.5866 27.1991 36.2217 27.1991V27.4385H37.6987V27.1466C37.6987 27.1466 37.3893 27.129 37.6082 26.8284C37.7016 26.7 38.408 25.8213 39.1874 24.8581C39.9667 25.8213 40.6731 26.7 40.7665 26.8284C40.9855 27.132 40.6761 27.1466 40.6761 27.1466V27.4385H42.1531V27.1991C41.7882 27.1991 41.6422 26.9685 41.6422 26.9685Z" fill="#43C6EF"/>
<g clip-path="url(#clip0_761_486)">
<path d="M5.97131 2.71099V4.53989H13.6059V7.07104H5.97131V9.27579H14.2749V11.8402H1.07764V0.17984H14.2749V2.71099H5.97131Z" fill="#00506D"/>
<path d="M48.1731 0.17984V3.3431H43.7617V11.8402H38.868V3.3431H34.4565V0.17984H48.1731Z" fill="#00506D"/>
<path d="M64.3109 3.62542C64.3109 3.10031 64.1804 2.63454 63.9185 2.23082C64.1623 2.72086 64.2991 3.27205 64.2991 3.85561V3.87629C64.3073 3.79447 64.3109 3.70995 64.3109 3.62542Z" fill="#00506D"/>
<path d="M78.6507 0.131271H72.1346L66.2275 11.8402H71.6025L72.5153 9.65162H78.3978L79.2852 11.8402H84.6348L78.6507 0.131271ZM73.5295 7.07102L75.4312 2.71097L77.3835 7.07102H73.5295Z" fill="#00506D"/>
<path d="M124.918 2.83327C124.359 1.9359 123.476 1.23905 122.27 0.743609C121.064 0.248169 119.499 0 117.576 0C115.654 0 114.131 0.245472 112.917 0.735517C111.704 1.22556 110.806 1.91882 110.222 2.81708C109.639 3.71535 109.347 4.76917 109.347 5.97765C109.347 6.8921 109.509 7.71663 109.832 8.45125C110.155 9.18586 110.651 9.82067 111.321 10.3539C111.991 10.8871 112.843 11.2953 113.876 11.5785C114.908 11.8618 116.133 12.0029 117.553 12.0029C118.972 12.0029 120.244 11.8618 121.277 11.5785C122.31 11.2953 123.157 10.8871 123.819 10.3539C124.481 9.82067 124.969 9.18586 125.285 8.45125C125.6 7.71663 125.758 6.89749 125.758 5.99383C125.758 4.78535 125.478 3.73153 124.918 2.83327ZM120.849 7.69235C120.612 8.15003 120.228 8.5025 119.695 8.74887C119.163 8.99524 118.448 9.11843 117.553 9.11843C116.657 9.11843 115.989 8.99524 115.448 8.74887C114.907 8.5025 114.514 8.15003 114.269 7.69235C114.024 7.23378 113.902 6.68978 113.902 6.05857C113.902 5.42736 114.024 4.86898 114.269 4.4104C114.514 3.95273 114.907 3.59756 115.448 3.34669C115.989 3.09492 116.699 2.96994 117.578 2.96994C118.913 2.96994 119.851 3.24508 120.393 3.79717C120.933 4.34926 121.204 5.10276 121.204 6.05857C121.204 6.68978 121.085 7.23378 120.849 7.69235Z" fill="#00506D"/>
<path d="M143.994 0.17984V11.8402H137.959L131.852 3.62544V11.8402H127.774V0.17984H133.785L139.891 8.27951V0.17984H143.994Z" fill="#00506D"/>
<path d="M162.561 0.17984V7.20231C162.561 8.18151 162.273 9.03122 161.699 9.74965C161.124 10.4681 160.258 11.0238 159.1 11.4149C157.942 11.8069 156.493 12.003 154.752 12.003C152.25 12.003 150.344 11.592 149.034 10.7702C147.724 9.94836 147.07 8.78035 147.07 7.26706V0.17984H151.988V7.02248C151.988 7.84971 152.229 8.44856 152.71 8.81901C153.193 9.18947 153.898 9.3738 154.828 9.3738C155.504 9.3738 156.049 9.29197 156.463 9.12922C156.877 8.96558 157.182 8.71021 157.376 8.36134C157.57 8.01336 157.667 7.56108 157.667 7.0063V0.17984H162.561Z" fill="#00506D"/>
<path d="M61.6783 7.37136C62.2656 7.19332 62.7904 6.87412 63.2137 6.45421C63.879 5.79332 64.2933 4.88247 64.2987 3.87631V3.85562C64.2987 3.27207 64.1618 2.72088 63.918 2.23083C63.3134 1.01606 62.0517 0.17984 60.5933 0.17984H50.2676V11.8402H54.8884V7.59435H57.1354L59.8782 11.8402H64.8734L61.6783 7.37136ZM60.0622 4.50932C59.8637 4.70623 59.531 4.80155 59.2274 4.80155H54.8884V2.8009H59.2274C59.8347 2.8009 60.3259 3.19923 60.3259 3.80167C60.3259 4.102 60.2616 4.3124 60.0622 4.50932Z" fill="#00506D"/>
<path d="M106.839 6.55671C106.291 5.99653 105.533 5.65036 104.698 5.65036C104.698 5.65036 106.733 5.11086 106.733 2.92049C106.733 2.1643 106.433 1.48003 105.948 0.984592C105.463 0.489153 104.792 0.182538 104.052 0.182538H96.8692V0.17984H93.6333V11.8402H104.698C106.37 11.8402 107.726 10.4546 107.726 8.74528C107.726 7.89107 107.387 7.11689 106.839 6.55671ZM97.8408 2.50058H102.198C102.605 2.50058 102.935 2.82788 102.935 3.2316C102.935 3.43302 102.852 3.61555 102.719 3.74772C102.586 3.8799 102.401 3.96173 102.198 3.96173H97.8408V2.50058ZM103.43 8.90443C103.296 9.03661 103.112 9.11843 102.909 9.11843H97.8408V7.65729H102.909C103.315 7.65729 103.645 7.98459 103.645 8.38741C103.645 8.58883 103.563 8.77226 103.43 8.90443Z" fill="#00506D"/>
<path d="M178 8.46025C178 9.09146 177.743 9.6903 177.228 10.2568C176.715 10.8224 175.921 11.2818 174.85 11.6361C173.955 11.9319 172.837 12.1037 171.498 12.1522H171.497L171.465 12.1666C171.334 12.1666 171.207 12.1657 171.082 12.163H171.07C167.197 12.0965 165.592 11.0543 164.929 10.1857C164.442 9.55093 164.459 9.00874 164.459 9.00874V8.41709H168.072C168.072 9.58061 171.345 9.57521 171.462 9.57431H171.465C171.672 9.55543 171.855 9.52666 172.014 9.48799C172.327 9.41246 172.562 9.30906 172.719 9.17868C172.877 9.0474 172.955 8.90084 172.955 8.73719C172.955 8.53038 172.841 8.35684 172.615 8.21477C172.387 8.07361 172.031 7.92704 171.543 7.77328C171.055 7.62133 170.401 7.4307 169.582 7.20231C168.885 7.0063 168.258 6.79949 167.7 6.58189C167.142 6.36429 166.667 6.11882 166.275 5.84637C165.883 5.57483 165.582 5.25652 165.374 4.89146C165.164 4.5264 165.06 4.0939 165.06 3.59307C165.06 2.84227 165.356 2.21375 165.948 1.70752C166.541 1.20129 167.364 0.820045 168.418 0.563783C168.824 0.465774 169.254 0.386648 169.71 0.326404C170.439 0.229294 171.234 0.17984 172.092 0.17984C172.168 0.17984 172.244 0.180739 172.319 0.180739C173.138 0.187933 173.954 0.305723 174.729 0.560187C176.2 1.04034 176.875 1.74439 177.185 2.29917C177.459 2.78922 177.448 3.16327 177.448 3.16327V3.75582H173.836C173.836 3.10662 172.819 2.82069 171.899 2.6948C171.479 2.6966 171.135 2.72897 170.864 2.79281C170.584 2.85845 170.38 2.94747 170.248 3.06256C170.119 3.17676 170.053 3.30444 170.053 3.44651C170.053 3.63173 170.167 3.79538 170.392 3.93565C170.619 4.07862 170.998 4.23327 171.53 4.40142C172.062 4.57046 172.789 4.78536 173.713 5.04702C174.619 5.29699 175.389 5.57213 176.026 5.87155C176.663 6.17097 177.151 6.52434 177.49 6.93257C177.829 7.34079 178 7.84971 178 8.46025Z" fill="#00506D"/>
<path d="M33.7466 11.8402H28.0925L24.5883 8.48902L21.0687 11.8402H15.5415L21.8174 5.84008L15.8968 0.17984H21.3225L24.5593 3.21812L27.7372 0.17984H33.3152L27.3619 5.84817L27.6184 6.08915L33.7466 11.8402Z" fill="#00506D"/>
</g>
<defs>
<clipPath id="clip0_761_486">
<rect width="176.923" height="12.1666" fill="white" transform="translate(1.07764)"/>
</clipPath>
</defs>
</svg>
