<svg xmlns="http://www.w3.org/2000/svg" width="14" height="14" viewBox="0 0 14 14" fill="none">
  <path fill-rule="evenodd" clip-rule="evenodd" d="M10.6685 6.39398C10.9821 6.21219 11.3836 6.31903 11.5654 6.63254L12.8177 8.7927C12.9995 9.10626 12.8927 9.50784 12.5792 9.68962C12.2656 9.8714 11.8641 9.76456 11.6823 9.45101L10.4299 7.29085C10.2482 6.97729 10.3549 6.57576 10.6685 6.39398Z" fill="#BCBEC8"/>
  <path fill-rule="evenodd" clip-rule="evenodd" d="M8.31935 7.51854C8.67631 7.45567 9.01664 7.69407 9.07951 8.05098L9.46779 10.2549C9.53066 10.6118 9.29231 10.9522 8.93535 11.015C8.57844 11.078 8.23807 10.8396 8.1752 10.4826L7.78691 8.2787C7.72405 7.92179 7.9624 7.58145 8.31935 7.51854Z" fill="#BCBEC8"/>
  <path fill-rule="evenodd" clip-rule="evenodd" d="M5.67532 7.51304C6.03228 7.57577 6.27081 7.91602 6.20807 8.27297L5.81979 10.4823C5.75705 10.8393 5.41681 11.0778 5.05985 11.0151C4.70289 10.9524 4.46437 10.6122 4.52711 10.2552L4.91539 8.04578C4.97812 7.68882 5.31837 7.4503 5.67532 7.51304Z" fill="#BCBEC8"/>
  <path fill-rule="evenodd" clip-rule="evenodd" d="M3.32499 6.39325C3.63894 6.57437 3.74664 6.97569 3.56554 7.28964L2.3132 9.46074C2.1321 9.77469 1.73079 9.88235 1.41684 9.70127C1.10289 9.52019 0.995186 9.11887 1.17628 8.80492L2.42862 6.63383C2.60972 6.31988 3.01103 6.21217 3.32499 6.39325Z" fill="#BCBEC8"/>
  <path fill-rule="evenodd" clip-rule="evenodd" d="M1.33768 5.22621C1.61963 4.99845 2.03282 5.04242 2.26055 5.32439C3.1068 6.37211 4.62166 7.65626 7.00004 7.65626C9.37838 7.65626 10.8932 6.37211 11.7395 5.32439C11.9672 5.04242 12.3804 4.99845 12.6624 5.22621C12.9443 5.45393 12.9883 5.8671 12.7606 6.14907C11.7693 7.3763 9.91541 8.96876 7.00004 8.96876C4.08463 8.96876 2.23075 7.3763 1.2395 6.14907C1.01177 5.8671 1.05572 5.45393 1.33768 5.22621Z" fill="#BCBEC8"/>
</svg>