<svg xmlns="http://www.w3.org/2000/svg" width="15" height="13" viewBox="0 0 15 13" fill="none">
  <path d="M12.1888 5.38435H11.5846H11.5844V3.53972C11.5844 1.58795 9.7522 0 7.50009 0C5.24811 0 3.41586 1.58795 3.41586 3.53974V5.38437H2.81146C2.33368 5.38437 1.94629 5.72006 1.94629 6.13416V6.5903V11.7941V12.2502C1.94629 12.6643 2.33365 13 2.81146 13H7.50012H12.1888C12.6666 13 13.054 12.6643 13.054 12.2502V11.7941V6.5903V6.13416C13.054 5.72003 12.6666 5.38435 12.1888 5.38435ZM8.42099 10.7553H6.57928L6.9089 9.39403C6.60065 9.22402 6.39474 8.92716 6.39474 8.58703C6.39474 8.05798 6.88968 7.62909 7.50012 7.62909C8.1106 7.62909 8.60544 8.05798 8.60544 8.58703C8.60544 8.92716 8.3996 9.22402 8.09137 9.39398L8.42099 10.7553ZM10.1271 5.38435H7.50012H4.87332H4.87317V3.53972C4.87317 2.28423 6.05154 1.263 7.50012 1.263C8.94876 1.263 10.1271 2.28426 10.1271 3.53972V5.38435Z" fill="#B2B6C2"/>
</svg>