<svg xmlns="http://www.w3.org/2000/svg" width="15" height="15" viewBox="0 0 15 15" fill="none">
  <path d="M7.71436 7.78913C9.85723 7.78913 11.6089 6.03744 11.6089 3.89456C11.6089 1.75169 9.85723 0 7.71436 0C5.57148 0 3.81982 1.75169 3.81982 3.89456C3.81982 6.03744 5.57152 7.78913 7.71436 7.78913Z" fill="#B2B6C2"/>
  <path d="M14.3981 10.9014C14.2961 10.6462 14.16 10.4082 14.007 10.1871C13.2247 9.03059 12.0172 8.26529 10.6566 8.07822C10.4866 8.06122 10.2995 8.09521 10.1635 8.19726C9.44916 8.72447 8.59884 8.99657 7.71446 8.99657C6.83009 8.99657 5.97976 8.72447 5.26547 8.19726C5.1294 8.09521 4.94233 8.0442 4.77227 8.07822C3.41173 8.26529 2.18725 9.03059 1.42195 10.1871C1.26889 10.4082 1.13282 10.6633 1.0308 10.9014C0.979794 11.0034 0.996786 11.1225 1.0478 11.2245C1.18386 11.4626 1.35392 11.7007 1.50698 11.9048C1.74506 12.2279 2.00017 12.517 2.2893 12.7891C2.52739 13.0272 2.79949 13.2483 3.07162 13.4694C4.41515 14.4728 6.0308 15 7.69747 15C9.36414 15 10.9798 14.4728 12.3233 13.4694C12.5954 13.2653 12.8675 13.0272 13.1056 12.7891C13.3777 12.517 13.6498 12.2279 13.888 11.9048C14.058 11.6837 14.2111 11.4626 14.3471 11.2245C14.4321 11.1225 14.4491 11.0034 14.3981 10.9014Z" fill="#B2B6C2"/>
</svg>