<svg width="1920" height="202" viewBox="0 0 1920 202" fill="none" xmlns="http://www.w3.org/2000/svg">
<g clip-path="url(#clip0_3_254)">
<mask id="mask0_3_254" style="mask-type:luminance" maskUnits="userSpaceOnUse" x="0" y="0" width="1920" height="202">
<path d="M1920 0H0V201.119H1920V0Z" fill="white"/>
</mask>
<g mask="url(#mask0_3_254)">
<path d="M1920 127.033V201.118H2.09808e-05L-9.42798 28.0771C-3.27695 35.5984 1.62278 44.061 5.08302 53.1402C13.41 47.5402 24.008 44.2831 35.437 43.2721C67.713 40.4151 107.974 56.4641 114.259 80.6861C117.131 91.7451 109.775 88.9061 128.38 87.2591C162.737 84.2211 193.942 93.2531 221.18 106.416C236.326 113.89 250.891 122.487 264.754 132.134C279.654 120.502 301.213 113.912 324.261 111.873C363.322 108.42 399.03 120.479 434.588 129.657C439.742 130.99 444.906 132.301 450.08 133.589C487.5 142.931 534.757 123.149 572.937 130.446C575.489 130.937 578.031 131.416 580.583 131.895C583.305 132.398 586.027 132.902 588.749 133.408C591.652 133.941 594.557 134.469 597.466 134.991C600.566 135.552 603.681 136.101 606.783 136.644C610.096 137.228 613.412 137.802 616.731 138.367C618.442 138.659 620.164 138.951 621.875 139.237C625.538 139.856 629.201 140.464 632.864 141.06C632.867 141.062 632.871 141.063 632.874 141.063C632.878 141.063 632.881 141.062 632.884 141.06C634.896 141.393 636.917 141.714 638.929 142.042C642.982 142.696 647.036 143.337 651.089 143.964L657.374 144.928L664.33 145.98C668.953 146.669 673.584 147.347 678.221 148.013C681.934 148.55 685.647 149.074 689.36 149.585C693.073 150.096 696.79 150.602 700.509 151.104C702.37 151.355 704.232 151.603 706.093 151.846C711.678 152.579 717.269 153.296 722.866 153.996C724.657 154.224 726.449 154.446 728.24 154.662C730.182 154.902 732.133 155.135 734.075 155.369L738.028 155.842C739.419 156.006 740.81 156.175 742.211 156.333C748.196 157.034 754.184 157.714 760.175 158.372C763.998 158.793 767.821 159.204 771.644 159.605C773.605 159.815 775.572 160.019 777.544 160.218C779.265 160.399 780.997 160.574 782.728 160.744C783.399 160.814 784.069 160.884 784.74 160.944C786.621 161.137 788.513 161.324 790.395 161.505C797.941 162.247 805.494 162.956 813.053 163.632C945.298 175.474 1198.58 165.832 1265.63 169.947C1306.49 168.2 1347.84 168.58 1389.07 166.068C1400.48 165.368 1431.14 158.304 1441.7 158.304C1441.7 158.304 1447.18 166.068 1483.55 166.068C1508.31 166.068 1535.97 162.96 1559.69 161.54C1554.16 158.952 1547.5 159.6 1541.97 158.303C1573.96 147.956 1607.36 142.667 1640.98 142.628C1651.44 142.628 1652.08 142.488 1652.08 144.528C1652.08 151.661 1631.69 154.428 1677.89 154.428C1694.5 154.428 1777.53 149.211 1777.53 138.828L1920 127.033Z" fill="#00BBFF"/>
</g>
</g>
<defs>
<clipPath id="clip0_3_254">
<rect width="1920" height="201.119" fill="white"/>
</clipPath>
</defs>
</svg>
